# xmcd
#
# Track frame offsets:
#	150
#	14775
#	32213
#	44925
#	59775
#	77663
#	90375
#	106688
#	118950
#	135000
#	153113
#	173513
#
# Disc length: 2480 seconds
#
# Revision: 1
# Processed by: cddbd v1.5.1PL0 Copyright (c) Steve Scherf et al.
# Submitted via: audiograbber 1.82.02
#
DISCID=9709ae0c
DTITLE=Vol 18 - NuTech Karaoke vol 18
DYEAR=2003
DGENRE=Karaoke CD+G
TTITLE0=Colin Raye - That Was A River
TTITLE1=Trisha Yearwood - The Song Remembers When
TTITLE2=Clay Walker - What's It To You
TTITLE3=Wynonna - Only Love
TTITLE4=Mark Chestnut - Almost Goodbye
TTITLE5=Toby Keith - He Ain't Worth Missin'
TTITLE6=Mc Bride The Ride - Hurry Sundown
TTITLE7=Jon Anderson - I Fell In The Water
TTITLE8=Garth Brooks - American Honky Tonk Bar Assoc
TTITLE9=Dwight Yoakam - Fast As You
TTITLE10=Aaron Tippin - Call Of The Wild
TTITLE11=Diamond Rio - This Romeo Ain't Got Julie Yet
EXTD=
EXTT0=
EXTT1=
EXTT2=
EXTT3=
EXTT4=
EXTT5=
EXTT6=
EXTT7=
EXTT8=
EXTT9=
EXTT10=
EXTT11=
PLAYORDER=
